# xmcd
#
# Track frame offsets:
#	150
#	13012
#	25362
#	34140
#	44515
#	59950
#	69265
#	81745
#	94585
#	107717
#	116510
#	124950
#
# Disc length: 1833 seconds
#
# Revision: 0
# Processed by: cddbd v1.5.2PL0 Copyright (c) Steve Scherf et al.
# Submitted via: dBpowerAMP V4.0
#
DISCID=ac07270c
DTITLE=Brown, Sullivan and Co - Magnum Banjos
DYEAR=2000
DGENRE=Bluegrass
TTITLE0=Camilla Run
TTITLE1=Arkansas Traveler
TTITLE2=Iris Washerwoman Jig
TTITLE3=Rhapsody in D Minor
TTITLE4=Billy In the Low Ground
TTITLE5=Miss Brown's Waltz
TTITLE6=Ole Joe Clark
TTITLE7=Red Haired Boy
TTITLE8=Essence of Sequatchie County
TTITLE9=Durang's Hompipe
TTITLE10=Banjo Waltz
TTITLE11=Waltzing Matilda
EXTD=
EXTT0=
EXTT1=
EXTT2=
EXTT3=
EXTT4=
EXTT5=
EXTT6=
EXTT7=
EXTT8=
EXTT9=
EXTT10=
EXTT11=
PLAYORDER=
